<?xml version="1.0" standalone="no"?>
<!DOCTYPE svg PUBLIC "-//W3C//DTD SVG 20010904//EN"
 "http://www.w3.org/TR/2001/REC-SVG-20010904/DTD/svg10.dtd">
<svg version="1.0" xmlns="http://www.w3.org/2000/svg"
 width="700.000000pt" height="700.000000pt" viewBox="0 0 700.000000 700.000000"
 preserveAspectRatio="xMidYMid meet">

<g transform="translate(0.000000,700.000000) scale(0.100000,-0.100000)"
fill="#000000" stroke="none">
<path d="M4720 6176 c-112 -30 -217 -111 -260 -201 -32 -66 -36 -146 -35 -673
l1 -477 26 -57 c15 -31 47 -77 72 -102 25 -26 44 -46 43 -47 -1 0 -9 -2 -17
-4 -9 -1 -50 -17 -92 -34 -244 -102 -433 -279 -558 -524 l-50 -99 -16 39
c-120 297 -311 484 -609 596 -38 15 -92 31 -120 37 -27 6 -59 12 -70 15 -80
17 -162 23 -305 20 -145 -2 -179 -6 -281 -33 -63 -16 -151 -46 -194 -66 -185
-86 -356 -234 -466 -405 -16 -25 -30 -41 -31 -35 -1 5 -2 113 -4 239 -1 127
-3 232 -3 235 -1 3 -314 5 -697 5 l-696 0 -2 -600 -1 -600 220 0 221 0 -1
-700 0 -700 -220 -5 -220 -5 0 -594 0 -595 1008 0 c555 -1 1012 1 1016 4 7 5
7 297 3 953 l-2 237 -310 0 -310 0 0 73 c-2 293 1 698 5 754 28 322 174 537
418 615 94 30 280 34 380 9 168 -44 286 -166 343 -357 49 -164 51 -205 52
-1204 1 -509 2 -961 2 -1005 l0 -80 688 2 c378 0 694 2 702 2 16 1 16 43 11
958 l-1 233 -217 2 -218 3 -1 387 c0 424 5 499 42 632 83 296 282 446 589 445
178 0 304 -47 399 -149 80 -87 127 -199 162 -385 4 -22 9 -508 11 -1080 2
-571 6 -1041 8 -1044 4 -3 1300 -5 1380 -2 22 1 21 -31 16 958 l-1 233 -222 2
-223 3 -1 565 c-2 1016 -4 1100 -39 1275 -12 58 -57 181 -92 250 -53 104 -96
165 -174 247 l-71 73 54 48 c89 81 68 76 328 78 145 1 253 7 281 14 111 29
209 108 257 204 l27 56 0 545 c0 602 3 573 -67 667 -43 59 -107 107 -182 136
-49 19 -80 20 -846 23 -605 2 -806 0 -840 -10z"/>
</g>
</svg>
